<mxfile host="app.diagrams.net" modified="2021-02-02T15:29:21.015Z" agent="5.0 (Windows NT 10.0; WOW64) AppleWebKit/537.36 (KHTML, like Gecko) Chrome/63.0.3239.132 Safari/537.36" etag="8b0OND-TuuNVQpV_4Zq5" version="14.2.9" type="github">
  <diagram id="1Y-AGW075F73ywzoA6A3" name="Page-1">
    <mxGraphModel dx="1422" dy="707" grid="1" gridSize="10" guides="1" tooltips="1" connect="1" arrows="1" fold="1" page="1" pageScale="1" pageWidth="827" pageHeight="1169" math="0" shadow="0">
      <root>
        <mxCell id="0" />
        <mxCell id="1" parent="0" />
        <mxCell id="JWbqHklWX86_7JovtIps-3" value="" style="ellipse;whiteSpace=wrap;html=1;aspect=fixed;" parent="1" vertex="1">
          <mxGeometry x="75" y="180" width="40" height="40" as="geometry" />
        </mxCell>
        <mxCell id="JWbqHklWX86_7JovtIps-4" value="" style="ellipse;whiteSpace=wrap;html=1;aspect=fixed;" parent="1" vertex="1">
          <mxGeometry x="75" y="220" width="40" height="40" as="geometry" />
        </mxCell>
        <mxCell id="JWbqHklWX86_7JovtIps-5" value="" style="ellipse;whiteSpace=wrap;html=1;aspect=fixed;" parent="1" vertex="1">
          <mxGeometry x="75" y="260" width="40" height="40" as="geometry" />
        </mxCell>
        <mxCell id="JWbqHklWX86_7JovtIps-7" value="&lt;font style=&quot;vertical-align: inherit&quot;&gt;&lt;font style=&quot;vertical-align: inherit&quot;&gt;自注意力&lt;br&gt;机制模块&lt;/font&gt;&lt;/font&gt;" style="rounded=1;whiteSpace=wrap;html=1;rotation=0;" parent="1" vertex="1">
          <mxGeometry x="190" y="210" width="70" height="100" as="geometry" />
        </mxCell>
        <mxCell id="JWbqHklWX86_7JovtIps-16" value="" style="shape=flexArrow;endArrow=classic;html=1;" parent="1" edge="1">
          <mxGeometry width="50" height="50" relative="1" as="geometry">
            <mxPoint x="130" y="259.5" as="sourcePoint" />
            <mxPoint x="180" y="259.5" as="targetPoint" />
          </mxGeometry>
        </mxCell>
        <mxCell id="JWbqHklWX86_7JovtIps-17" value="" style="shape=flexArrow;endArrow=classic;html=1;" parent="1" edge="1">
          <mxGeometry width="50" height="50" relative="1" as="geometry">
            <mxPoint x="270" y="259.5" as="sourcePoint" />
            <mxPoint x="320" y="259.5" as="targetPoint" />
          </mxGeometry>
        </mxCell>
        <mxCell id="JWbqHklWX86_7JovtIps-18" value="" style="ellipse;whiteSpace=wrap;html=1;aspect=fixed;" parent="1" vertex="1">
          <mxGeometry x="360" y="160" width="40" height="40" as="geometry" />
        </mxCell>
        <mxCell id="JWbqHklWX86_7JovtIps-20" value="" style="endArrow=classic;startArrow=classic;html=1;entryX=0.5;entryY=1;entryDx=0;entryDy=0;" parent="1" target="JWbqHklWX86_7JovtIps-18" edge="1">
          <mxGeometry width="50" height="50" relative="1" as="geometry">
            <mxPoint x="380" y="240" as="sourcePoint" />
            <mxPoint x="379.5" y="220" as="targetPoint" />
          </mxGeometry>
        </mxCell>
        <mxCell id="JWbqHklWX86_7JovtIps-22" value="&lt;font style=&quot;vertical-align: inherit&quot;&gt;&lt;font style=&quot;vertical-align: inherit&quot;&gt;兴趣点转移关系&lt;/font&gt;&lt;/font&gt;" style="rounded=1;whiteSpace=wrap;html=1;" parent="1" vertex="1">
          <mxGeometry x="335" y="240" width="90" height="40" as="geometry" />
        </mxCell>
        <mxCell id="JWbqHklWX86_7JovtIps-23" value="" style="ellipse;whiteSpace=wrap;html=1;aspect=fixed;" parent="1" vertex="1">
          <mxGeometry x="285" y="525" width="40" height="40" as="geometry" />
        </mxCell>
        <mxCell id="JWbqHklWX86_7JovtIps-24" value="用户访问序列" style="text;html=1;strokeColor=none;fillColor=none;align=center;verticalAlign=middle;whiteSpace=wrap;rounded=0;" parent="1" vertex="1">
          <mxGeometry x="40" y="300" width="110" height="20" as="geometry" />
        </mxCell>
        <mxCell id="JWbqHklWX86_7JovtIps-25" value="" style="ellipse;whiteSpace=wrap;html=1;aspect=fixed;" parent="1" vertex="1">
          <mxGeometry x="385" y="525" width="40" height="40" as="geometry" />
        </mxCell>
        <mxCell id="JWbqHklWX86_7JovtIps-26" value="" style="endArrow=classic;startArrow=classic;html=1;entryX=0;entryY=0.5;entryDx=0;entryDy=0;" parent="1" target="JWbqHklWX86_7JovtIps-25" edge="1">
          <mxGeometry width="50" height="50" relative="1" as="geometry">
            <mxPoint x="325" y="544.5" as="sourcePoint" />
            <mxPoint x="375" y="545" as="targetPoint" />
          </mxGeometry>
        </mxCell>
        <mxCell id="tEYXXtcUQg2VyIbTbdrW-3" value="" style="ellipse;whiteSpace=wrap;html=1;aspect=fixed;" vertex="1" parent="1">
          <mxGeometry x="75" y="349" width="40" height="40" as="geometry" />
        </mxCell>
        <mxCell id="tEYXXtcUQg2VyIbTbdrW-4" value="" style="ellipse;whiteSpace=wrap;html=1;aspect=fixed;" vertex="1" parent="1">
          <mxGeometry x="75" y="389" width="40" height="40" as="geometry" />
        </mxCell>
        <mxCell id="tEYXXtcUQg2VyIbTbdrW-5" value="" style="ellipse;whiteSpace=wrap;html=1;aspect=fixed;" vertex="1" parent="1">
          <mxGeometry x="75" y="430" width="40" height="40" as="geometry" />
        </mxCell>
        <mxCell id="tEYXXtcUQg2VyIbTbdrW-6" value="空间距离&lt;br&gt;模块" style="rounded=1;whiteSpace=wrap;html=1;rotation=0;" vertex="1" parent="1">
          <mxGeometry x="190" y="352" width="70" height="116" as="geometry" />
        </mxCell>
        <mxCell id="tEYXXtcUQg2VyIbTbdrW-7" value="" style="shape=flexArrow;endArrow=classic;html=1;" edge="1" parent="1">
          <mxGeometry width="50" height="50" relative="1" as="geometry">
            <mxPoint x="130" y="409.5" as="sourcePoint" />
            <mxPoint x="180" y="409.5" as="targetPoint" />
          </mxGeometry>
        </mxCell>
        <mxCell id="tEYXXtcUQg2VyIbTbdrW-8" value="空间距离序列" style="text;html=1;strokeColor=none;fillColor=none;align=center;verticalAlign=middle;whiteSpace=wrap;rounded=0;" vertex="1" parent="1">
          <mxGeometry x="40" y="470" width="110" height="20" as="geometry" />
        </mxCell>
        <mxCell id="tEYXXtcUQg2VyIbTbdrW-9" value="" style="shape=flexArrow;endArrow=classic;html=1;" edge="1" parent="1">
          <mxGeometry width="50" height="50" relative="1" as="geometry">
            <mxPoint x="270" y="409.5" as="sourcePoint" />
            <mxPoint x="320" y="409.5" as="targetPoint" />
          </mxGeometry>
        </mxCell>
        <mxCell id="tEYXXtcUQg2VyIbTbdrW-11" value="&lt;font style=&quot;vertical-align: inherit&quot;&gt;&lt;font style=&quot;vertical-align: inherit&quot;&gt;用户距离偏好&lt;/font&gt;&lt;/font&gt;" style="rounded=1;whiteSpace=wrap;html=1;" vertex="1" parent="1">
          <mxGeometry x="335" y="390" width="90" height="40" as="geometry" />
        </mxCell>
        <mxCell id="tEYXXtcUQg2VyIbTbdrW-12" value="兴趣点向量" style="text;html=1;strokeColor=none;fillColor=none;align=center;verticalAlign=middle;whiteSpace=wrap;rounded=0;" vertex="1" parent="1">
          <mxGeometry x="335" y="140" width="90" height="20" as="geometry" />
        </mxCell>
        <mxCell id="tEYXXtcUQg2VyIbTbdrW-14" value="" style="shape=flexArrow;endArrow=classic;html=1;" edge="1" parent="1">
          <mxGeometry width="50" height="50" relative="1" as="geometry">
            <mxPoint x="444" y="260" as="sourcePoint" />
            <mxPoint x="510" y="290" as="targetPoint" />
            <Array as="points">
              <mxPoint x="469" y="260.5" />
            </Array>
          </mxGeometry>
        </mxCell>
        <mxCell id="tEYXXtcUQg2VyIbTbdrW-15" value="" style="shape=flexArrow;endArrow=classic;html=1;" edge="1" parent="1">
          <mxGeometry width="50" height="50" relative="1" as="geometry">
            <mxPoint x="435" y="409.5" as="sourcePoint" />
            <mxPoint x="505" y="409.5" as="targetPoint" />
          </mxGeometry>
        </mxCell>
        <mxCell id="tEYXXtcUQg2VyIbTbdrW-16" value="" style="shape=flexArrow;endArrow=classic;html=1;" edge="1" parent="1">
          <mxGeometry width="50" height="50" relative="1" as="geometry">
            <mxPoint x="444" y="550" as="sourcePoint" />
            <mxPoint x="510" y="510" as="targetPoint" />
            <Array as="points">
              <mxPoint x="480" y="540" />
            </Array>
          </mxGeometry>
        </mxCell>
        <mxCell id="tEYXXtcUQg2VyIbTbdrW-17" value="用户向量" style="text;html=1;strokeColor=none;fillColor=none;align=center;verticalAlign=middle;whiteSpace=wrap;rounded=0;" vertex="1" parent="1">
          <mxGeometry x="280" y="565" width="50" height="20" as="geometry" />
        </mxCell>
        <mxCell id="tEYXXtcUQg2VyIbTbdrW-18" value="兴趣点向量" style="text;html=1;strokeColor=none;fillColor=none;align=center;verticalAlign=middle;whiteSpace=wrap;rounded=0;" vertex="1" parent="1">
          <mxGeometry x="364" y="565" width="70" height="20" as="geometry" />
        </mxCell>
        <mxCell id="tEYXXtcUQg2VyIbTbdrW-19" value="自适应&lt;br&gt;模块" style="rounded=1;whiteSpace=wrap;html=1;" vertex="1" parent="1">
          <mxGeometry x="520" y="300" width="50" height="210" as="geometry" />
        </mxCell>
        <mxCell id="tEYXXtcUQg2VyIbTbdrW-20" style="edgeStyle=orthogonalEdgeStyle;rounded=0;orthogonalLoop=1;jettySize=auto;html=1;exitX=0.5;exitY=1;exitDx=0;exitDy=0;" edge="1" parent="1">
          <mxGeometry relative="1" as="geometry">
            <mxPoint x="95" y="499" as="sourcePoint" />
            <mxPoint x="95" y="499" as="targetPoint" />
          </mxGeometry>
        </mxCell>
        <mxCell id="tEYXXtcUQg2VyIbTbdrW-22" value="" style="shape=flexArrow;endArrow=classic;html=1;" edge="1" parent="1">
          <mxGeometry width="50" height="50" relative="1" as="geometry">
            <mxPoint x="580" y="408.5" as="sourcePoint" />
            <mxPoint x="620" y="408.5" as="targetPoint" />
          </mxGeometry>
        </mxCell>
        <mxCell id="tEYXXtcUQg2VyIbTbdrW-23" value="" style="ellipse;whiteSpace=wrap;html=1;aspect=fixed;" vertex="1" parent="1">
          <mxGeometry x="630" y="391" width="39" height="39" as="geometry" />
        </mxCell>
        <mxCell id="tEYXXtcUQg2VyIbTbdrW-24" value="兴趣点预测得分" style="text;html=1;strokeColor=none;fillColor=none;align=center;verticalAlign=middle;whiteSpace=wrap;rounded=0;" vertex="1" parent="1">
          <mxGeometry x="604.5" y="430" width="90" height="20" as="geometry" />
        </mxCell>
      </root>
    </mxGraphModel>
  </diagram>
</mxfile>
